/* XPM */
static char * default_icon_xpm[] = {
"32 32 6 1",
" 	c None",
".	c #000000",
"+	c #808080",
"@	c #C0C0C0",
"#	c #00FFFF",
"$	c #FFFFFF",
"                                ",
"                                ",
"                                ",
"                                ",
"                                ",
"                                ",
"     .                          ",
"     .....                      ",
"     .####....                  ",
"     .....####....              ",
"     .++++....####.....         ",
"     .$$$$++++....####.         ",
"     .$$$$$$$$++++.....         ",
"     .$$$$$$$$$$$$++++.         ",
"     .$$$$$$$$$$$$$$$$.         ",
"     .$$$$$$$$$$$$$$$$.         ",
"     .$$$$$$$$$$$$$$$$.         ",
"     .$$$$$$$$$$$$$$$$.         ",
"     .$$$$$$$$$$$$$$$$.         ",
"     .$$$$$$$$$$$$$$$$.         ",
"     .$$$$$$$$$$$$$$$$.         ",
"     .$$$$$$$$$$$$$$$$.@@       ",
"     .$$$$$$$$$$$$$$$$.@@@@     ",
"     ....+$$$$$$$$$$$$.@@@@@@   ",
"         .....+$$$$$$$.@@@@     ",
"              ....+$$$.@@       ",
"                  .....         ",
"                                ",
"                                ",
"                                ",
"                                ",
"                                "};
