/* XPM */
static char * default_icon_xpm[] = {
"64 64 6 1",
" 	c None",
".	c #000000",
"+	c #00FFFF",
"@	c #808080",
"#	c #FFFFFF",
"$	c #C0C0C0",
"                                                                ",
"                                                                ",
"                                                                ",
"                                                                ",
"                                                                ",
"                                                                ",
"                                                                ",
"                                                                ",
"                                                                ",
"                                                                ",
"                                                                ",
"                                                                ",
"          ..                                                    ",
"          ..                                                    ",
"          ..........                                            ",
"          ..........                                            ",
"          ..++++++++........                                    ",
"          ..++++++++........                                    ",
"          ..........++++++++........                            ",
"          ..........++++++++........                            ",
"          ..@@@@@@@@........++++++++..........                  ",
"          ..@@@@@@@@........++++++++..........                  ",
"          ..########@@@@@@@@........++++++++..                  ",
"          ..########@@@@@@@@........++++++++..                  ",
"          ..################@@@@@@@@..........                  ",
"          ..################@@@@@@@@..........                  ",
"          ..########################@@@@@@@@..                  ",
"          ..########################@@@@@@@@..                  ",
"          ..################################..                  ",
"          ..################################..                  ",
"          ..################################..                  ",
"          ..################################..                  ",
"          ..################################..                  ",
"          ..################################..                  ",
"          ..################################..                  ",
"          ..################################..                  ",
"          ..################################..                  ",
"          ..################################..                  ",
"          ..################################..                  ",
"          ..################################..                  ",
"          ..################################..                  ",
"          ..################################..                  ",
"          ..################################..$$$$              ",
"          ..################################..$$$$              ",
"          ..################################..$$$$$$$$          ",
"          ..################################..$$$$$$$$          ",
"          ........@@########################..$$$$$$$$$$$$      ",
"          ........@@########################..$$$$$$$$$$$$      ",
"                  ..........@@##############..$$$$$$$$          ",
"                  ..........@@##############..$$$$$$$$          ",
"                            ........@@######..$$$$              ",
"                            ........@@######..$$$$              ",
"                                    ..........                  ",
"                                    ..........                  ",
"                                                                ",
"                                                                ",
"                                                                ",
"                                                                ",
"                                                                ",
"                                                                ",
"                                                                ",
"                                                                ",
"                                                                ",
"                                                                "};
