/* XPM */
static char * hidpi_close_xpm[] = {
"22 7 4 1",
" 	c None",
".	c #000000",
"+	c #FFFFFF",
"@	c #87888F",
"....................  ",
".++++++++++++++++++.@@",
".++++++++++++++++++.@@",
".++++++++++++++++++.@@",
"....................@@",
"  @@@@@@@@@@@@@@@@@@@@",
"  @@@@@@@@@@@@@@@@@@@@"};
