/* XPM */
static char * hidpi_unzoom_xpm[] = {
"13 18 2 1",
" 	c None",
".	c #000000",
"      .      ",
"     ...     ",
"    .....    ",
"   .......   ",
"  .........  ",
" ........... ",
".............",
"             ",
"             ",
"             ",
"             ",
".............",
" ........... ",
"  .........  ",
"   .......   ",
"    .....    ",
"     ...     ",
"      .      "};
