/* XPM */
static char * hidpi_utility_close_xpm[] = {
"14 14 4 1",
" 	c None",
".	c #000000",
"+	c #FFFFFF",
"@	c #87888F",
"              ",
"              ",
"              ",
"              ",
"              ",
"  ..........  ",
"  .++++++++.@@",
"  .++++++++.@@",
"  ..........@@",
"    @@@@@@@@@@",
"    @@@@@@@@@@",
"              ",
"              ",
"              "};
