/* XPM */
static char * utility_close_xpm[] = {
"7 7 4 1",
" 	c None",
".	c #000000",
"+	c #FFFFFF",
"@	c #87888F",
"       ",
"       ",
"...... ",
".++++.@",
"......@",
" @@@@@@",
"       "};
